<svg xmlns="http://www.w3.org/2000/svg" viewBox="0 0 800 500" width="800" height="500" role="img" aria-labelledby="t">
  <title id="t">노가다뉴스 인터넷신문사 운영</title>
  <defs>
    <linearGradient id="bg" x1="0%" y1="0%" x2="100%" y2="100%">
      <stop offset="0%" style="stop-color:#1a1208"/>
      <stop offset="100%" style="stop-color:#070b12"/>
    </linearGradient>
    <linearGradient id="glow" x1="100%" y1="0%" x2="0%" y2="100%">
      <stop offset="0%" style="stop-color:#ff6a00;stop-opacity:.28"/>
      <stop offset="100%" style="stop-color:#ff6a00;stop-opacity:0"/>
    </linearGradient>
  </defs>
  <rect width="800" height="500" fill="url(#bg)"/>
  <circle cx="720" cy="60" r="160" fill="url(#glow)"/>
  <rect x="100" y="120" width="600" height="280" rx="14" fill="rgba(255,255,255,.04)" stroke="rgba(255,106,0,.35)"/>
  <rect x="130" y="155" width="180" height="24" rx="4" fill="rgba(255,106,0,.25)"/>
  <rect x="130" y="195" width="540" height="10" rx="3" fill="rgba(255,255,255,.12)"/>
  <rect x="130" y="215" width="480" height="10" rx="3" fill="rgba(255,255,255,.08)"/>
  <rect x="130" y="235" width="520" height="10" rx="3" fill="rgba(255,255,255,.08)"/>
  <rect x="130" y="275" width="240" height="100" rx="8" fill="rgba(0,0,0,.35)" stroke="rgba(255,255,255,.1)"/>
  <path d="M160 330 L200 295 L240 325 L290 280 L340 340" fill="none" stroke="#ff6a00" stroke-width="3" stroke-linecap="round" opacity=".85"/>
  <rect x="400" y="275" width="270" height="100" rx="8" fill="rgba(255,106,0,.1)" stroke="rgba(255,106,0,.4)"/>
  <text x="535" y="328" text-anchor="middle" fill="#ffd7be" font-family="system-ui,sans-serif" font-size="14" font-weight="800">nogadanews</text>
  <text x="535" y="352" text-anchor="middle" fill="rgba(232,238,255,.65)" font-family="system-ui,sans-serif" font-size="11">현장형 · 발행</text>
</svg>
