<svg width="1600" height="900" viewBox="0 0 1600 900" fill="none" xmlns="http://www.w3.org/2000/svg">
  <rect width="1600" height="900" fill="#0C1016"/>
  <rect width="1600" height="900" fill="url(#bg)"/>
  <circle cx="1250" cy="170" r="260" fill="url(#glow1)"/>
  <circle cx="260" cy="760" r="240" fill="url(#glow2)"/>

  <rect x="90" y="90" width="1420" height="720" rx="36" fill="rgba(255,255,255,0.03)" stroke="rgba(255,255,255,0.12)"/>

  <text x="140" y="180" fill="#F7F2E8" font-size="52" font-family="Pretendard, Arial, sans-serif" font-weight="800">NURION SOLAR BUSINESS</text>
  <text x="140" y="240" fill="#E6D9C0" font-size="26" font-family="Pretendard, Arial, sans-serif">지붕형 · 영농형 · 주민참여형 · RE100 · 협동조합 설립 대행</text>

  <rect x="140" y="300" width="420" height="140" rx="24" fill="#1B1A16" stroke="rgba(255,255,255,0.10)"/>
  <text x="180" y="358" fill="#FFF3DE" font-size="30" font-family="Pretendard, Arial, sans-serif" font-weight="700">태양광 개발</text>
  <text x="180" y="400" fill="#D9C5A0" font-size="22" font-family="Pretendard, Arial, sans-serif">사업 구조 검토 · 유형 설계</text>

  <rect x="140" y="470" width="420" height="140" rx="24" fill="#1B1A16" stroke="rgba(255,255,255,0.10)"/>
  <text x="180" y="528" fill="#FFF3DE" font-size="30" font-family="Pretendard, Arial, sans-serif" font-weight="700">문서·인허가 지원</text>
  <text x="180" y="570" fill="#D9C5A0" font-size="22" font-family="Pretendard, Arial, sans-serif">PM 문서 · 대관 기초 대응</text>

  <rect x="140" y="640" width="420" height="110" rx="24" fill="#1B1A16" stroke="rgba(255,255,255,0.10)"/>
  <text x="180" y="705" fill="#FFF3DE" font-size="28" font-family="Pretendard, Arial, sans-serif" font-weight="700">태양광협동조합 설립 대행</text>

  <g>
    <circle cx="1100" cy="430" r="180" fill="#2A2114" stroke="rgba(255,255,255,0.12)"/>
    <circle cx="1100" cy="430" r="86" fill="#FFAA2B"/>
    <g stroke="#FFAA2B" stroke-width="14" stroke-linecap="round">
      <line x1="1100" y1="160" x2="1100" y2="220"/>
      <line x1="1100" y1="640" x2="1100" y2="700"/>
      <line x1="830" y1="430" x2="890" y2="430"/>
      <line x1="1310" y1="430" x2="1370" y2="430"/>
      <line x1="910" y1="240" x2="952" y2="282"/>
      <line x1="1248" y1="578" x2="1290" y2="620"/>
      <line x1="1248" y1="282" x2="1290" y2="240"/>
      <line x1="910" y1="620" x2="952" y2="578"/>
    </g>
  </g>

  <rect x="810" y="640" width="580" height="110" rx="24" fill="#171A1F" stroke="rgba(255,255,255,0.10)"/>
  <text x="860" y="685" fill="#FFF4E2" font-size="28" font-family="Pretendard, Arial, sans-serif" font-weight="700">주민참여형 · RE100 · 탄소중립 재생에너지</text>
  <text x="860" y="722" fill="#D8C8A6" font-size="20" font-family="Pretendard, Arial, sans-serif">실행형 태양광 프로젝트 구조를 한 화면에</text>

  <defs>
    <radialGradient id="glow1" cx="0" cy="0" r="1" gradientUnits="userSpaceOnUse" gradientTransform="translate(1250 170) rotate(90) scale(260)">
      <stop stop-color="#FF9F1A" stop-opacity="0.28"/>
      <stop offset="1" stop-color="#FF9F1A" stop-opacity="0"/>
    </radialGradient>
    <radialGradient id="glow2" cx="0" cy="0" r="1" gradientUnits="userSpaceOnUse" gradientTransform="translate(260 760) rotate(90) scale(240)">
      <stop stop-color="#FFC66B" stop-opacity="0.18"/>
      <stop offset="1" stop-color="#FFC66B" stop-opacity="0"/>
    </radialGradient>
    <linearGradient id="bg" x1="0" y1="0" x2="1600" y2="900" gradientUnits="userSpaceOnUse">
      <stop stop-color="#0D1118"/>
      <stop offset="1" stop-color="#121821"/>
    </linearGradient>
  </defs>
</svg>
